<?xml version="1.0" standalone="no"?>
<!DOCTYPE svg PUBLIC "-//W3C//DTD SVG 20010904//EN"
 "http://www.w3.org/TR/2001/REC-SVG-20010904/DTD/svg10.dtd">
<svg version="1.0" xmlns="http://www.w3.org/2000/svg"
 width="196.000000pt" height="257.000000pt" viewBox="0 0 196.000000 257.000000"
 preserveAspectRatio="xMidYMid meet">

<g transform="translate(0.000000,257.000000) scale(0.100000,-0.100000)"
fill="#000000" stroke="none">
<path d="M840 2126 c0 -2 7 -6 15 -10 8 -3 15 -1 15 4 0 6 -7 10 -15 10 -8 0
-15 -2 -15 -4z"/>
<path d="M1120 1975 c8 -11 23 -29 34 -40 l18 -20 -10 20 c-6 11 -21 29 -33
40 -24 20 -24 20 -9 0z"/>
<path d="M765 1914 c-9 -15 -12 -23 -6 -20 11 7 35 46 28 46 -3 0 -12 -12 -22
-26z"/>
<path d="M1190 1880 c31 -43 46 -48 18 -6 -13 20 -27 36 -31 36 -5 0 1 -13 13
-30z"/>
<path d="M712 1832 c-17 -26 -38 -63 -45 -82 -18 -42 -27 -200 -12 -200 6 0 9
31 7 79 -4 85 6 117 63 209 14 23 24 42 22 42 -3 0 -19 -21 -35 -48z"/>
<path d="M1226 1821 c-3 -5 1 -11 9 -15 8 -3 15 -11 15 -18 0 -7 7 -26 16 -43
12 -20 17 -57 18 -112 1 -46 5 -83 10 -83 5 0 7 39 4 88 -3 66 -10 99 -28 135
-26 52 -35 62 -44 48z"/>
<path d="M1270 1530 c0 -6 5 -10 10 -10 13 0 13 -180 0 -200 -5 -9 -5 -19 1
-26 8 -9 8 -522 0 -624 0 -8 -1 -62 0 -120 0 -58 0 -107 -1 -110 -1 -3 -1 -30
0 -61 1 -32 -3 -60 -9 -64 -6 -3 -8 -11 -5 -17 9 -15 -16 -28 -35 -18 -101 50
-164 69 -174 52 -4 -5 5 -7 20 -4 18 3 24 1 19 -6 -4 -7 -2 -10 7 -6 21 8 69
-14 61 -28 -5 -7 -3 -8 5 -4 7 5 20 1 29 -7 31 -26 49 -26 73 0 34 35 35 64
31 789 -2 400 -4 463 -17 468 -8 3 -15 1 -15 -4z"/>
<path d="M647 1388 c-4 -79 -7 -328 -7 -553 0 -314 3 -414 12 -423 10 -10 10
-15 -1 -21 -26 -16 11 -121 50 -141 11 -6 25 -9 32 -6 7 2 3 5 -8 5 -16 1 -14
5 12 21 18 11 39 17 47 14 8 -3 17 -1 21 5 4 7 -1 9 -12 5 -16 -5 -16 -4 1 10
23 19 31 19 56 6 14 -7 19 -5 23 10 3 13 0 20 -9 20 -8 0 -14 -4 -14 -10 0 -5
-7 -7 -15 -4 -8 3 -31 -3 -50 -15 -20 -12 -43 -21 -51 -21 -8 0 -12 -4 -9 -10
9 -14 -29 -12 -43 2 -16 16 -15 31 1 22 6 -4 4 2 -6 13 -14 16 -16 31 -12 72
3 36 1 51 -8 51 -8 0 -7 4 3 10 8 5 11 10 5 10 -6 0 -8 41 -3 117 3 65 4 249
1 409 -5 215 -3 293 5 298 9 5 9 13 1 27 -6 12 -9 62 -7 120 2 54 0 99 -3 99
-3 0 -9 -64 -12 -142z"/>
<path d="M958 363 c6 -2 18 -2 25 0 6 3 1 5 -13 5 -14 0 -19 -2 -12 -5z"/>
<path d="M915 350 c-16 -7 -17 -9 -3 -9 9 -1 20 4 23 9 7 11 7 11 -20 0z"/>
<path d="M1208 243 c7 -3 16 -2 19 1 4 3 -2 6 -13 5 -11 0 -14 -3 -6 -6z"/>
</g>
</svg>
