<?xml version="1.0" standalone="no"?>
<!DOCTYPE svg PUBLIC "-//W3C//DTD SVG 20010904//EN"
 "http://www.w3.org/TR/2001/REC-SVG-20010904/DTD/svg10.dtd">
<svg version="1.0" xmlns="http://www.w3.org/2000/svg"
 width="512.000000pt" height="600.000000pt" viewBox="0 0 512.000000 600.000000"
 preserveAspectRatio="xMidYMid meet">

<g transform="translate(0.000000,600.000000) scale(0.100000,-0.100000)"
fill="#000000" stroke="none">
<path d="M2352 5858 c-16 -21 -23 -56 -12 -63 5 -3 10 1 10 9 0 9 3 16 8 16 4
0 7 11 7 25 0 29 0 29 -13 13z"/>
<path d="M2390 5840 c0 -5 5 -10 10 -10 6 0 10 5 10 10 0 6 -4 10 -10 10 -5 0
-10 -4 -10 -10z"/>
<path d="M2770 5824 c0 -14 5 -24 11 -22 6 2 10 7 10 11 -1 4 -1 14 -1 22 0 8
-4 15 -10 15 -5 0 -10 -12 -10 -26z"/>
<path d="M2433 5827 c-51 -8 -65 -19 -43 -32 6 -4 17 -1 25 5 13 11 190 10
250 -1 11 -3 21 2 22 11 3 11 -6 16 -34 17 -21 1 -67 3 -103 5 -36 2 -89 0
-117 -5z"/>
<path d="M2680 5741 c0 -15 6 -21 21 -21 14 0 19 5 17 17 -5 26 -38 29 -38 4z"/>
<path d="M2750 5731 c0 -6 5 -13 10 -16 6 -3 10 1 10 9 0 9 -4 16 -10 16 -5 0
-10 -4 -10 -9z"/>
<path d="M2357 5723 c-11 -11 -8 -113 3 -113 6 0 10 24 9 60 -1 33 -3 60 -4
60 -1 0 -5 -3 -8 -7z"/>
<path d="M2413 5723 c-13 -5 -19 -104 -7 -116 4 -3 13 1 21 9 13 12 34 14 117
8 55 -3 105 -8 110 -11 15 -10 22 16 17 58 -5 38 -9 42 -36 44 -16 1 -54 6
-82 10 -33 4 -53 3 -53 -3 0 -5 31 -12 69 -16 73 -7 102 -24 78 -45 -8 -6 -60
-12 -118 -13 l-104 -3 -3 33 c-3 27 0 32 17 32 12 0 21 5 21 10 0 10 -26 12
-47 3z"/>
<path d="M2341 5564 c0 -11 3 -14 6 -6 3 7 2 16 -1 19 -3 4 -6 -2 -5 -13z"/>
<path d="M2383 5555 c0 -30 13 -33 20 -5 4 16 11 19 39 15 26 -4 29 -3 13 4
-11 5 -32 10 -46 10 -22 1 -26 -4 -26 -24z"/>
<path d="M2650 5573 c8 -3 18 -10 21 -15 3 -5 12 -2 19 7 11 13 8 15 -21 14
-19 0 -27 -3 -19 -6z"/>
<path d="M2778 5555 c2 -14 7 -25 11 -25 3 0 6 11 6 25 0 14 -5 25 -11 25 -7
0 -9 -10 -6 -25z"/>
<path d="M2697 5524 c3 -8 12 -13 20 -10 8 3 20 6 26 7 14 1 -22 17 -40 18 -7
1 -10 -6 -6 -15z"/>
<path d="M2250 5521 c0 -6 5 -13 10 -16 6 -3 10 1 10 9 0 9 -4 16 -10 16 -5 0
-10 -4 -10 -9z"/>
<path d="M2333 5513 c-27 -18 -30 -54 -5 -69 16 -10 17 -8 14 23 -3 23 0 38 9
44 7 4 11 10 9 12 -3 3 -15 -2 -27 -10z"/>
<path d="M2792 5495 c1 -17 -2 -37 -6 -44 -6 -9 -4 -12 5 -9 18 6 23 42 10 65
-9 15 -10 13 -9 -12z"/>
<path d="M2377 5504 c-10 -11 -8 -47 3 -64 9 -13 12 -13 21 3 10 17 23 18 155
12 l144 -5 0 24 c0 15 -7 25 -20 29 -31 8 -295 9 -303 1z"/>
<path d="M2403 5423 c-26 -10 -11 -19 36 -21 28 -1 53 3 56 8 4 6 -6 10 -24
10 -16 0 -35 2 -43 4 -7 3 -19 2 -25 -1z"/>
<path d="M2708 5423 c7 -3 16 -2 19 1 4 3 -2 6 -13 5 -11 0 -14 -3 -6 -6z"/>
<path d="M2335 5410 c-3 -5 1 -10 10 -10 9 0 13 5 10 10 -3 6 -8 10 -10 10 -2
0 -7 -4 -10 -10z"/>
<path d="M2535 5410 c3 -5 13 -10 21 -10 8 0 14 5 14 10 0 6 -9 10 -21 10 -11
0 -17 -4 -14 -10z"/>
<path d="M2780 5410 c0 -5 7 -10 16 -10 8 0 12 5 9 10 -3 6 -10 10 -16 10 -5
0 -9 -4 -9 -10z"/>
<path d="M2685 5400 c-3 -5 1 -10 10 -10 9 0 13 5 10 10 -3 6 -8 10 -10 10 -2
0 -7 -4 -10 -10z"/>
<path d="M2357 5376 c-9 -22 4 -160 15 -171 8 -7 9 -6 4 2 -3 6 -6 50 -7 97
-1 87 -3 97 -12 72z"/>
<path d="M2659 5388 c-4 -18 0 -160 5 -165 3 -3 6 33 6 80 0 48 -2 87 -5 87
-3 0 -5 -1 -6 -2z"/>
<path d="M2400 5308 c0 -40 5 -80 10 -88 11 -18 11 -20 13 88 2 52 -2 72 -10
72 -9 0 -13 -21 -13 -72z"/>
<path d="M2295 5160 c-3 -5 1 -10 10 -10 9 0 13 5 10 10 -3 6 -8 10 -10 10 -2
0 -7 -4 -10 -10z"/>
<path d="M2472 5148 c-48 -30 -34 -31 23 -3 26 14 40 25 29 24 -10 0 -34 -10
-52 -21z"/>
<path d="M2595 5155 c50 -18 57 -18 25 0 -14 8 -34 14 -45 14 -11 0 -2 -6 20
-14z"/>
<path d="M2438 5153 c7 -3 16 -2 19 1 4 3 -2 6 -13 5 -11 0 -14 -3 -6 -6z"/>
<path d="M2668 5148 c5 -5 16 -8 23 -6 8 3 3 7 -10 11 -17 4 -21 3 -13 -5z"/>
<path d="M2805 5150 c-3 -5 -1 -10 4 -10 6 0 11 5 11 10 0 6 -2 10 -4 10 -3 0
-8 -4 -11 -10z"/>
<path d="M2513 5138 c-13 -6 -23 -15 -23 -21 0 -5 10 -7 23 -3 12 3 40 6 62 6
37 1 39 2 21 15 -23 17 -52 18 -83 3z"/>
<path d="M2640 5117 c0 -8 7 -14 15 -14 8 0 15 6 15 14 0 7 -7 13 -15 13 -8 0
-15 -6 -15 -13z"/>
<path d="M2400 5100 c0 -5 5 -10 11 -10 5 0 7 -4 4 -10 -3 -5 -1 -10 4 -10 13
0 13 3 5 24 -7 18 -24 22 -24 6z"/>
<path d="M2685 5100 c-3 -5 1 -10 9 -10 9 0 16 5 16 10 0 6 -4 10 -9 10 -6 0
-13 -4 -16 -10z"/>
<path d="M2389 5068 c-6 -21 -5 -38 2 -38 5 0 9 9 9 20 0 16 -7 28 -11 18z"/>
<path d="M2754 5042 c5 -8 -1 -12 -16 -13 -18 -1 -19 -2 -4 -6 23 -6 43 12 25
22 -8 5 -10 4 -5 -3z"/>
<path d="M2578 5033 c12 -2 32 -2 45 0 12 2 2 4 -23 4 -25 0 -35 -2 -22 -4z"/>
<path d="M2840 5021 c0 -6 5 -13 10 -16 6 -3 10 1 10 9 0 9 -4 16 -10 16 -5 0
-10 -4 -10 -9z"/>
<path d="M2793 5010 c-30 -12 -29 -22 2 -18 17 2 33 -6 55 -30 30 -34 50 -38
58 -12 3 9 -1 11 -12 7 -9 -4 -16 -2 -16 3 0 5 -9 11 -19 15 -10 3 -21 15 -24
25 -6 22 -11 23 -44 10z"/>
<path d="M2400 5001 c0 -11 39 -26 47 -17 8 8 3 12 -24 20 -13 4 -23 3 -23 -3z"/>
<path d="M2668 4998 c9 -9 15 -9 24 0 9 9 7 12 -12 12 -19 0 -21 -3 -12 -12z"/>
<path d="M2875 5000 c-12 -19 68 -48 88 -32 7 6 21 12 32 14 19 5 19 5 1 13
-12 5 -21 3 -26 -5 -6 -10 -12 -11 -22 -3 -17 14 -67 22 -73 13z"/>
<path d="M2274 4968 c-16 -12 -31 -23 -33 -25 -3 -2 1 -9 7 -15 10 -10 14 -8
18 10 4 12 12 22 20 22 7 0 16 5 19 11 13 20 -2 19 -31 -3z"/>
<path d="M2615 4980 c3 -5 12 -10 19 -10 7 0 18 -11 24 -25 11 -23 32 -35 32
-17 0 11 -20 38 -20 27 0 -5 -7 1 -16 13 -14 21 -52 33 -39 12z"/>
<path d="M2445 4954 l-29 -23 28 -10 c30 -12 126 -14 175 -5 24 5 29 9 20 20
-14 18 -69 35 -122 38 -33 3 -50 -2 -72 -20z"/>
<path d="M2180 4961 c13 -10 11 -14 -10 -31 -14 -11 -19 -20 -12 -20 6 0 12
-7 12 -15 0 -8 7 -15 15 -15 8 0 15 5 15 10 0 6 -6 10 -12 10 -10 0 -10 2 0 9
18 11 12 53 -8 58 -13 4 -13 3 0 -6z"/>
<path d="M2395 4959 c-11 -17 1 -21 15 -4 8 9 8 15 2 15 -6 0 -14 -5 -17 -11z"/>
<path d="M2780 4960 c0 -5 7 -10 16 -10 8 0 12 5 9 10 -3 6 -10 10 -16 10 -5
0 -9 -4 -9 -10z"/>
<path d="M2826 4925 c9 -38 12 -41 26 -27 10 10 7 17 -11 35 l-22 22 7 -30z"/>
<path d="M2960 4939 c0 -5 6 -9 13 -9 6 0 23 -3 37 -7 36 -9 19 6 -19 17 -19
5 -31 5 -31 -1z"/>
<path d="M2342 4920 c-27 -25 -27 -30 -3 -23 11 3 22 12 26 20 9 24 1 25 -23
3z"/>
<path d="M2899 4918 c-10 -18 -9 -20 5 -15 9 4 16 3 16 -1 0 -12 -14 -29 -30
-35 -8 -3 1 -6 20 -7 19 -1 29 -4 23 -7 -28 -11 -10 -21 50 -27 34 -4 90 -10
125 -14 65 -8 107 1 60 13 -15 4 -32 4 -37 0 -18 -11 -33 5 -20 21 9 11 7 14
-9 14 -11 0 -22 4 -24 9 -1 4 -12 5 -23 0 -19 -8 -19 -8 3 -15 31 -9 28 -24
-5 -23 -38 1 -74 12 -74 22 0 4 13 19 28 32 31 27 12 35 -21 10 -27 -20 -48
-19 -45 3 4 47 -21 60 -42 20z"/>
<path d="M2706 4911 c-4 -5 -3 -17 0 -26 6 -15 1 -17 -34 -13 -23 2 -38 0 -34
-3 13 -13 57 -12 84 1 22 10 25 16 17 31 -11 20 -24 24 -33 10z"/>
<path d="M2130 4880 c0 -5 5 -10 11 -10 5 0 7 5 4 10 -3 6 -8 10 -11 10 -2 0
-4 -4 -4 -10z"/>
<path d="M2008 4873 c7 -3 16 -2 19 1 4 3 -2 6 -13 5 -11 0 -14 -3 -6 -6z"/>
<path d="M2063 4873 c9 -2 23 -2 30 0 6 3 -1 5 -18 5 -16 0 -22 -2 -12 -5z"/>
<path d="M2205 4870 c-8 -13 45 -13 65 0 11 7 6 10 -22 10 -20 0 -40 -4 -43
-10z"/>
<path d="M2296 4867 c3 -10 9 -15 12 -12 3 3 0 11 -7 18 -10 9 -11 8 -5 -6z"/>
<path d="M2464 4871 c-15 -15 6 -21 73 -21 92 0 88 17 -5 22 -35 1 -66 1 -68
-1z"/>
<path d="M2365 4850 c3 -5 12 -7 20 -3 21 7 19 13 -6 13 -11 0 -18 -4 -14 -10z"/>
<path d="M2821 4851 c-10 -6 -5 -11 18 -16 36 -8 53 1 31 15 -19 12 -31 12
-49 1z"/>
<path d="M3260 4820 c-24 -8 -23 -8 8 -9 20 -1 31 3 27 9 -3 6 -7 10 -8 9 -1
-1 -13 -5 -27 -9z"/>
<path d="M1505 4740 c-13 -6 -15 -9 -5 -9 8 0 22 4 30 9 18 12 2 12 -25 0z"/>
<path d="M3123 4743 c9 -2 25 -2 35 0 9 3 1 5 -18 5 -19 0 -27 -2 -17 -5z"/>
<path d="M2038 4733 c18 -2 45 -2 60 0 15 2 0 4 -33 4 -33 0 -45 -2 -27 -4z"/>
<path d="M3755 4675 c11 -8 37 -23 57 -33 26 -11 37 -22 34 -33 -5 -23 3 -32
54 -58 25 -13 63 -37 85 -55 37 -29 39 -29 24 -6 -9 14 -30 34 -47 45 -18 11
-35 33 -40 50 -6 24 -21 36 -73 62 -35 17 -75 35 -89 38 -24 6 -24 6 -5 -10z
m140 -95 c3 -5 1 -10 -4 -10 -6 0 -11 5 -11 10 0 6 2 10 4 10 3 0 8 -4 11 -10z"/>
<path d="M1355 4671 c-11 -5 -25 -6 -31 -4 -7 2 -39 -9 -72 -26 -63 -32 -146
-115 -138 -138 3 -7 0 -15 -6 -19 -7 -4 -8 -3 -4 4 4 7 5 12 2 12 -6 0 -36
-55 -36 -64 0 -3 10 4 23 15 12 11 38 33 57 49 19 15 31 32 27 37 -5 4 -13 0
-18 -10 -6 -9 -14 -17 -20 -17 -5 0 -2 11 8 25 11 15 24 22 36 19 9 -3 17 0
17 6 0 6 -6 8 -12 4 -7 -4 -6 0 2 9 8 8 25 18 37 22 18 5 22 3 17 -9 -3 -8
-11 -17 -17 -19 -7 -2 -1 -1 13 2 14 3 53 4 87 3 34 -1 64 2 68 7 7 12 -26 31
-54 31 -30 0 -26 18 5 22 17 2 30 11 35 26 9 23 6 25 -26 13z"/>
<path d="M1576 4665 c-25 -19 -20 -23 29 -28 22 -3 32 -2 23 0 -10 2 -18 8
-18 13 0 5 8 14 18 19 15 9 14 10 -8 10 -14 0 -34 -6 -44 -14z"/>
<path d="M1700 4620 c25 -8 97 -13 89 -6 -2 2 -29 6 -59 9 -36 4 -46 3 -30 -3z"/>
<path d="M1805 4602 c-14 -7 -2 -10 44 -15 90 -10 139 -9 146 3 4 6 -6 10 -23
10 -16 0 -56 2 -88 5 -32 3 -68 1 -79 -3z"/>
<path d="M1571 4595 c3 -2 43 -7 90 -9 66 -4 74 -3 39 4 -49 9 -136 13 -129 5z"/>
<path d="M3278 4590 c24 -3 73 -3 110 0 60 6 56 7 -43 7 -76 0 -97 -2 -67 -7z"/>
<path d="M1388 4513 c7 -3 16 -2 19 1 4 3 -2 6 -13 5 -11 0 -14 -3 -6 -6z"/>
<path d="M1603 4513 c9 -2 25 -2 35 0 9 3 1 5 -18 5 -19 0 -27 -2 -17 -5z"/>
<path d="M2188 4513 c6 -2 18 -2 25 0 6 3 1 5 -13 5 -14 0 -19 -2 -12 -5z"/>
<path d="M3685 4510 c-3 -5 1 -10 10 -10 9 0 13 5 10 10 -3 6 -8 10 -10 10 -2
0 -7 -4 -10 -10z"/>
<path d="M3950 4135 c0 -8 7 -15 15 -15 8 0 15 7 15 15 0 8 -7 15 -15 15 -8 0
-15 -7 -15 -15z"/>
<path d="M1175 4130 c-4 -7 76 -33 82 -26 2 2 -15 10 -37 19 -22 8 -42 12 -45
7z"/>
<path d="M3745 4110 c-17 -7 -15 -9 10 -8 17 0 41 4 55 8 23 7 22 8 -10 8 -19
0 -44 -3 -55 -8z"/>
<path d="M1135 1880 c-16 -16 -25 -33 -21 -37 6 -7 66 49 66 61 0 14 -18 4
-45 -24z"/>
<path d="M3980 1892 c0 -12 19 -26 26 -19 2 2 -2 10 -11 17 -9 8 -15 8 -15 2z"/>
<path d="M1132 1078 c-15 -15 -16 -48 -2 -48 6 0 10 4 10 10 0 5 10 18 22 30
21 19 21 20 2 20 -11 0 -25 -5 -32 -12z"/>
<path d="M3965 1050 c3 -5 8 -10 11 -10 2 0 4 5 4 10 0 6 -5 10 -11 10 -5 0
-7 -4 -4 -10z"/>
<path d="M4030 1011 c0 -5 5 -13 10 -16 6 -3 10 -2 10 4 0 5 -4 13 -10 16 -5
3 -10 2 -10 -4z"/>
<path d="M3800 870 c-8 -5 -12 -11 -9 -14 2 -3 11 -1 19 4 8 5 12 11 9 14 -2
3 -11 1 -19 -4z"/>
<path d="M1440 840 c0 -5 5 -10 11 -10 5 0 7 5 4 10 -3 6 -8 10 -11 10 -2 0
-4 -4 -4 -10z"/>
<path d="M3687 813 c-27 -8 -46 -17 -44 -20 7 -6 78 16 92 28 11 11 13 11 -48
-8z"/>
<path d="M3850 675 c-7 -9 -10 -18 -7 -21 3 -3 10 4 17 15 13 25 8 27 -10 6z"/>
<path d="M3727 644 c-4 -4 -29 -12 -56 -18 -47 -10 -49 -12 -35 -31 11 -15 17
-17 23 -7 4 7 15 10 24 6 16 -6 66 31 67 49 0 9 -14 9 -23 1z"/>
<path d="M1482 609 c-13 -5 -28 -7 -33 -3 -5 3 -9 0 -9 -6 0 -7 14 -17 31 -23
22 -9 29 -17 25 -30 -4 -18 -4 -18 15 -1 12 10 16 20 10 22 -6 2 -8 14 -5 28
7 26 2 28 -34 13z"/>
<path d="M317 303 c-11 -11 -8 -75 3 -68 6 3 7 17 4 31 -6 22 -3 24 25 24 17
0 31 5 31 10 0 11 -53 14 -63 3z"/>
<path d="M432 298 c-8 -10 -1 -13 32 -13 35 0 40 2 30 12 -16 17 -49 17 -62 1z"/>
<path d="M554 285 c-17 -27 -15 -98 4 -117 6 -6 6 6 -1 29 -5 22 -7 52 -3 67
6 24 11 28 35 24 21 -3 28 -1 24 9 -8 22 -41 15 -59 -12z"/>
<path d="M672 298 c-17 -17 -15 -33 3 -18 8 7 24 10 36 7 16 -4 18 -3 8 9 -14
17 -31 18 -47 2z"/>
<path d="M792 298 c-17 -17 -15 -33 3 -18 8 7 24 10 36 7 16 -4 18 -3 8 9 -14
17 -31 18 -47 2z"/>
<path d="M922 290 c-16 -15 -22 -32 -22 -65 0 -24 4 -47 10 -50 6 -4 7 5 4 23
-4 17 -1 32 5 36 6 4 11 12 11 17 0 6 -4 7 -10 4 -16 -10 -12 11 5 25 8 7 24
10 34 7 14 -3 18 -1 14 9 -7 20 -26 17 -51 -6z"/>
<path d="M1027 298 c-3 -9 8 -13 38 -13 34 0 39 2 29 12 -16 17 -60 17 -67 1z"/>
<path d="M1150 269 c0 -24 4 -38 10 -34 6 3 7 17 4 31 -6 22 -3 24 25 24 17 0
31 5 31 10 0 6 -16 10 -35 10 -34 0 -35 -1 -35 -41z"/>
<path d="M127 263 c-11 -10 -8 -41 3 -48 7 -4 8 3 4 20 -7 27 -6 27 29 23 20
-2 33 0 31 4 -6 10 -58 11 -67 1z"/>
<path d="M495 260 c-3 -5 -17 -10 -31 -10 -13 0 -24 -4 -24 -10 0 -5 9 -10 19
-10 11 0 25 -2 33 -3 7 -2 10 -2 6 0 -14 8 -8 21 10 25 12 2 13 6 5 11 -6 4
-14 3 -18 -3z"/>
<path d="M618 226 c-3 -27 -12 -52 -19 -57 -11 -7 -11 -9 -1 -9 17 0 34 47 30
84 -3 25 -4 21 -10 -18z"/>
<path d="M730 261 c0 -5 -16 -24 -35 -42 -38 -36 -45 -59 -17 -59 14 0 14 2 3
9 -11 7 -7 16 22 44 32 30 47 57 32 57 -3 0 -5 -4 -5 -9z"/>
<path d="M818 225 c-42 -46 -47 -65 -20 -65 14 0 15 2 2 10 -12 7 -8 15 23 43
20 19 37 40 37 46 0 15 0 15 -42 -34z"/>
<path d="M1090 260 c-8 -5 -24 -12 -35 -16 -17 -6 -14 -8 15 -15 19 -4 37 -6
39 -3 2 2 -1 4 -7 4 -19 0 -14 18 6 22 9 2 13 6 7 10 -5 3 -17 2 -25 -2z"/>
<path d="M350 250 c0 -6 4 -9 9 -6 5 4 12 1 14 -4 3 -6 4 -5 3 2 -3 15 -26 23
-26 8z"/>
<path d="M962 246 c7 -8 15 -12 17 -11 5 6 -10 25 -20 25 -5 0 -4 -6 3 -14z"/>
<path d="M1202 246 c7 -8 15 -12 17 -11 5 6 -10 25 -20 25 -5 0 -4 -6 3 -14z"/>
<path d="M170 210 c8 -5 20 -10 25 -10 6 0 3 5 -5 10 -8 5 -19 10 -25 10 -5 0
-3 -5 5 -10z"/>
<path d="M243 213 c9 -2 23 -2 30 0 6 3 -1 5 -18 5 -16 0 -22 -2 -12 -5z"/>
<path d="M376 196 c-5 -21 -13 -26 -35 -26 -16 0 -32 5 -34 10 -3 6 -4 5 -3
-2 1 -7 16 -14 32 -16 35 -3 75 31 57 49 -7 7 -12 3 -17 -15z"/>
<path d="M976 197 c-4 -16 -15 -27 -29 -30 -21 -4 -21 -4 -1 -6 26 -1 56 30
45 48 -6 9 -10 6 -15 -12z"/>
<path d="M1217 197 c-6 -22 -13 -27 -36 -27 -16 0 -32 5 -34 10 -3 6 -4 5 -3
-2 1 -7 17 -14 34 -16 23 -2 33 2 42 18 6 12 10 26 7 33 -2 7 -7 0 -10 -16z"/>
<path d="M495 190 c-7 -22 -59 -29 -68 -10 -3 6 -4 5 -3 -2 4 -22 60 -21 80 1
10 11 13 21 7 25 -5 4 -12 -3 -16 -14z"/>
<path d="M1095 190 c-7 -22 -59 -29 -68 -10 -3 6 -4 5 -3 -2 4 -22 56 -22 77
1 10 11 15 22 10 26 -5 3 -12 -4 -16 -15z"/>
<path d="M124 178 c3 -17 69 -17 72 0 1 7 0 8 -3 2 -2 -5 -17 -10 -33 -10 -16
0 -31 5 -33 10 -3 6 -4 5 -3 -2z"/>
<path d="M718 163 c7 -3 16 -2 19 1 4 3 -2 6 -13 5 -11 0 -14 -3 -6 -6z"/>
<path d="M838 163 c7 -3 16 -2 19 1 4 3 -2 6 -13 5 -11 0 -14 -3 -6 -6z"/>
<path d="M1278 3 c705 -2 1859 -2 2565 0 705 1 128 2 -1283 2 -1411 0 -1988
-1 -1282 -2z"/>
</g>
</svg>
