<?xml version="1.0" standalone="no"?>
<!DOCTYPE svg PUBLIC "-//W3C//DTD SVG 20010904//EN"
 "http://www.w3.org/TR/2001/REC-SVG-20010904/DTD/svg10.dtd">
<svg version="1.0" xmlns="http://www.w3.org/2000/svg"
 width="800.000000pt" height="800.000000pt" viewBox="0 0 800.000000 800.000000"
 preserveAspectRatio="xMidYMid meet">

<g transform="translate(0.000000,800.000000) scale(0.100000,-0.100000)"
fill="#000000" stroke="none">
<path d="M3568 6354 c-4 -3 -14 -7 -25 -8 -16 -3 -19 -17 -24 -122 -4 -65 -7
-161 -8 -212 l-1 -93 31 -11 c39 -14 32 -20 -10 -8 -24 7 -31 6 -28 -3 8 -27
140 -47 377 -58 283 -12 559 -4 650 19 63 16 64 17 30 22 -34 5 -34 6 -9 13
24 6 27 13 33 68 3 34 6 131 6 215 0 127 -2 152 -14 148 -8 -3 -17 0 -21 6 -6
9 -9 9 -15 0 -5 -8 -11 -8 -21 3 -12 12 -92 15 -467 19 -317 3 -453 1 -456 -6
-3 -7 -7 -7 -13 2 -5 7 -12 10 -15 6z m922 -24 c0 -5 -4 -10 -10 -10 -5 0 -10
5 -10 10 0 6 5 10 10 10 6 0 10 -4 10 -10z"/>
<path d="M3695 5740 c-3 -5 1 -10 9 -10 8 0 18 5 21 10 3 6 -1 10 -9 10 -8 0
-18 -4 -21 -10z"/>
<path d="M4038 5733 c23 -2 61 -2 85 0 23 2 4 4 -43 4 -47 0 -66 -2 -42 -4z"/>
<path d="M3888 5703 c39 -2 105 -2 145 0 39 1 7 3 -73 3 -80 0 -112 -2 -72 -3z"/>
<path d="M4133 5703 c9 -2 25 -2 35 0 9 3 1 5 -18 5 -19 0 -27 -2 -17 -5z"/>
<path d="M2878 3532 c1 -1059 5 -1928 7 -1931 3 -2 8 -2 11 1 10 11 4 3539 -6
3699 -6 84 -12 154 -13 155 -1 1 -1 -864 1 -1924z"/>
<path d="M5210 5375 c-6 -69 -8 -156 -14 -560 -13 -917 -15 -1211 -8 -1245 7
-31 10 -24 22 60 10 72 13 292 15 893 1 438 -1 814 -5 835 -4 20 -9 28 -10 17z"/>
<path d="M5190 3431 c0 -24 4 -40 9 -36 6 3 8 19 6 36 -6 48 -15 47 -15 0z"/>
<path d="M5192 3320 c0 -14 2 -19 5 -12 2 6 2 18 0 25 -3 6 -5 1 -5 -13z"/>
<path d="M5189 3168 c0 -62 -2 -261 -5 -443 -3 -181 -3 -327 0 -324 3 3 9 165
12 360 3 195 6 391 8 437 1 45 -1 82 -6 82 -4 0 -8 -51 -9 -112z"/>
<path d="M5182 2365 c0 -16 2 -22 5 -12 2 9 2 23 0 30 -3 6 -5 -1 -5 -18z"/>
<path d="M5183 2280 c0 -25 2 -35 4 -22 2 12 2 32 0 45 -2 12 -4 2 -4 -23z"/>
<path d="M3868 1173 c7 -3 16 -2 19 1 4 3 -2 6 -13 5 -11 0 -14 -3 -6 -6z"/>
<path d="M4226 1040 c-17 -6 -18 -7 -3 -13 9 -3 19 -2 23 4 9 15 2 18 -20 9z"/>
<path d="M2940 806 c0 -3 14 -12 30 -21 17 -9 30 -13 30 -11 0 3 -13 12 -30
21 -16 9 -30 13 -30 11z"/>
<path d="M5078 789 c-21 -11 -38 -21 -38 -24 0 -8 59 17 71 31 15 18 12 17
-33 -7z"/>
<path d="M4735 765 c-16 -8 -23 -14 -15 -14 8 0 26 6 40 14 32 18 15 18 -25 0z"/>
<path d="M4990 745 c-14 -8 -20 -14 -15 -14 6 0 21 6 35 14 14 8 21 14 15 14
-5 0 -21 -6 -35 -14z"/>
<path d="M4748 673 c7 -3 16 -2 19 1 4 3 -2 6 -13 5 -11 0 -14 -3 -6 -6z"/>
</g>
</svg>
