<?xml version="1.0" standalone="no"?>
<!DOCTYPE svg PUBLIC "-//W3C//DTD SVG 20010904//EN"
 "http://www.w3.org/TR/2001/REC-SVG-20010904/DTD/svg10.dtd">
<svg version="1.0" xmlns="http://www.w3.org/2000/svg"
 width="220.000000pt" height="220.000000pt" viewBox="0 0 220.000000 220.000000"
 preserveAspectRatio="xMidYMid meet">

<g transform="translate(0.000000,220.000000) scale(0.100000,-0.100000)"
fill="#000000" stroke="none">
<path d="M1038 1313 c7 -3 16 -2 19 1 4 3 -2 6 -13 5 -11 0 -14 -3 -6 -6z"/>
<path d="M1085 1310 c-3 -5 1 -10 9 -10 9 0 16 5 16 10 0 6 -4 10 -9 10 -6 0
-13 -4 -16 -10z"/>
<path d="M972 1245 c0 -16 2 -22 5 -12 2 9 2 23 0 30 -3 6 -5 -1 -5 -18z"/>
<path d="M953 1188 c-6 -7 -14 -23 -18 -36 l-7 -23 124 3 c118 3 123 4 124 24
1 20 -4 22 -74 23 -41 1 -79 4 -84 8 -6 3 -21 -7 -33 -23 -26 -32 -43 -28 -25
6 13 25 8 37 -7 18z"/>
<path d="M638 833 c6 -2 18 -2 25 0 6 3 1 5 -13 5 -14 0 -19 -2 -12 -5z"/>
<path d="M665 769 c-15 -6 -11 -8 18 -8 20 -1 37 1 37 3 0 9 -37 12 -55 5z"/>
<path d="M933 643 c-20 -8 -15 -41 7 -48 11 -3 20 -14 20 -23 0 -15 2 -15 10
-2 8 12 10 9 10 -12 0 -16 5 -28 10 -28 10 0 14 18 10 58 -1 15 4 22 15 22 13
0 16 -6 13 -24 -4 -19 -1 -23 18 -23 26 0 27 12 2 39 -22 22 -68 24 -68 3 0
-12 -3 -12 -20 2 -24 20 -26 38 -5 29 8 -3 15 -1 15 4 0 11 -16 12 -37 3z"/>
<path d="M1146 635 c-3 -8 -12 -15 -20 -15 -8 0 -16 -12 -19 -27 l-4 -28 -2
28 c-1 21 -6 27 -23 27 -17 0 -19 -3 -10 -9 8 -4 13 -11 13 -15 -4 -29 1 -36
28 -36 24 0 28 4 24 19 -3 10 0 22 6 25 7 5 11 -3 11 -18 0 -17 6 -26 16 -26
9 0 12 5 8 13 -6 10 -4 10 7 0 7 -7 23 -13 35 -13 12 0 25 6 27 13 4 10 6 10
6 0 1 -7 11 -13 23 -13 21 0 21 0 2 15 -19 14 -18 14 4 15 24 0 29 14 10 26
-7 4 -8 3 -4 -4 4 -7 2 -12 -3 -12 -6 0 -11 5 -11 11 0 8 -5 8 -15 -1 -13 -11
-15 -8 -15 14 0 14 -4 26 -10 26 -5 0 -10 -19 -10 -41 0 -36 -2 -40 -15 -29
-12 10 -13 16 -4 26 14 17 -2 19 -19 2 -9 -9 -12 -6 -12 15 0 29 -14 36 -24
12z"/>
<path d="M1563 605 c0 -27 2 -38 4 -22 2 15 2 37 0 50 -2 12 -4 0 -4 -28z"/>
<path d="M1317 633 c-11 -10 -8 -73 3 -73 6 0 10 18 10 40 0 41 -2 45 -13 33z"/>
<path d="M1347 633 c-6 -11 4 -73 12 -73 7 0 6 69 -2 76 -3 3 -7 2 -10 -3z"/>
<path d="M1390 608 c1 -22 27 -51 35 -38 4 6 -2 20 -14 31 -13 13 -21 15 -21
7z"/>
<path d="M920 575 c0 -8 4 -15 10 -15 5 0 7 7 4 15 -4 8 -8 15 -10 15 -2 0 -4
-7 -4 -15z"/>
<path d="M875 570 c3 -5 14 -10 23 -10 15 0 15 2 2 10 -20 13 -33 13 -25 0z"/>
<path d="M683 453 c3 -27 -1 -34 -24 -43 -15 -7 -33 -9 -38 -5 -6 3 -11 2 -11
-3 0 -5 14 -12 30 -14 17 -3 30 -1 30 4 0 4 11 8 25 8 30 0 30 -3 5 46 l-21
39 4 -32z"/>
<path d="M610 336 c0 -2 14 -6 30 -8 17 -3 30 -1 30 4 0 4 -13 8 -30 8 -16 0
-30 -2 -30 -4z"/>
<path d="M605 290 c3 -5 17 -10 31 -10 13 0 24 5 24 10 0 6 -14 10 -31 10 -17
0 -28 -4 -24 -10z"/>
</g>
</svg>
