<svg xmlns="http://www.w3.org/2000/svg" xmlns:xlink="http://www.w3.org/1999/xlink" viewBox="0 0 500 500"><defs><clipPath id="freepik--clip-path--inject-48"><circle cx="249.63" cy="357.57" r="47.22" style="fill:#0CF681"></circle></clipPath></defs><g id="freepik--Shadow--inject-48"><ellipse id="freepik--path--inject-48" cx="245.18" cy="412.39" rx="193.89" ry="11.32" style="fill:#f5f5f5"></ellipse></g><g id="freepik--water-drop--inject-48"><path d="M250.33,241.72s-58.67,59.37-58.67,112.35,47.64,59.63,58.67,59.63,53.47-7,57.82-56.52S260.64,297.64,250.33,241.72Z" style="fill:#0CF681"></path><g style="opacity:0.4"><path d="M247.93,307.26c-15.05-4.95-30.56-10-39.11-3.27-8.32,15.87-14.56,33.37-14.61,50.22-.14,50.73,45.46,57.21,56,57.24s51.22-6.56,55.51-54c1.9-21-6.76-34.57-17.84-47.85C279.72,317.7,263.58,312.4,247.93,307.26Z"></path><path d="M247.93,307.26c-15.05-4.95-30.56-10-39.11-3.27-8.32,15.87-14.56,33.37-14.61,50.22-.14,50.73,45.46,57.21,56,57.24s51.22-6.56,55.51-54c1.9-21-6.76-34.57-17.84-47.85C279.72,317.7,263.58,312.4,247.93,307.26Z" style="opacity:0.4"></path></g><path d="M245.26,303.58c-14.67,4.78-29.81,9.7-37.16,1.65-8,15.59-13.89,32.68-13.89,49.13,0,50.73,45.61,57.09,56.16,57.09s51.2-6.69,55.36-54.11c2.32-26.43-12.07-41.11-27-58.19C270.6,295.33,257.76,299.51,245.26,303.58Z" style="fill:none"></path><path d="M245.26,303.58c-14.67,4.78-29.81,9.7-37.16,1.65-8,15.59-13.89,32.68-13.89,49.13,0,50.73,45.61,57.09,56.16,57.09s51.2-6.69,55.36-54.11c2.32-26.43-12.07-41.11-27-58.19C270.6,295.33,257.76,299.51,245.26,303.58Z" style="fill:#0CF681"></path><path d="M245.26,303.58c-14.67,4.78-29.81,9.7-37.16,1.65-8,15.59-13.89,32.68-13.89,49.13,0,50.73,43.83,57.09,56.16,57.09,10.56,0,51.2-6.69,55.36-54.11,2.32-26.43-12.07-41.11-27-58.19C270.6,295.33,257.76,299.51,245.26,303.58Z" style="opacity:0.2"></path><circle cx="249.63" cy="357.57" r="47.22" style="fill:#0CF681"></circle><g style="clip-path:url(#freepik--clip-path--inject-48)"><circle cx="249.63" cy="357.57" r="47.22" style="fill:#0CF681;opacity:0.7000000000000001"></circle></g><path d="M225.58,329.74c-.55-.42-3.16.47-3.17-.3,0-.52,1.76-2,2.09-2.61.49-1,.23-2.29.69-3.19a8.09,8.09,0,0,1,1.48-2.1c2.65-2.24,6.7-4.68,10.08-4.84,1.21-.07,2.88,2,3.15,3.65.16,1,0,3.83-.85,4.83-1.29,1.52-4.11,1.53-5.61,2.71-1.74,1.37-2.59,4.61-4.59,5.68-.56.3-1.63-.28-2-.59C226.2,332.41,226.21,330.21,225.58,329.74Z" style="fill:#fff"></path><path d="M280.33,378.34a1.6,1.6,0,0,0-.94.06,9.11,9.11,0,0,0-2.33,3,11.56,11.56,0,0,0-1,3.92c0,.5.32,1.5.73,1.55s1.14-.58,1.44-.93c1.5-1.81,3.31-4.62,3.18-6.86C281.42,378.74,280.67,378.42,280.33,378.34Z" style="fill:#fff"></path><path d="M251.7,335.13a3.7,3.7,0,0,0,2.16-.88c.56-.82.78-3.31.19-4-.24-.29-1.16-.23-1.47,0s-.3,1.76-.71,2.12-1.55-.15-1.9.25a2.51,2.51,0,0,0-.18,2.1C250.07,335.15,251.2,335.18,251.7,335.13Z" style="fill:#fff"></path><path d="M279.87,321.3a2.19,2.19,0,0,0-.85,1.42c0,.39.76,1.5.66,1.84-.24.83-2.2,1.42-3.19.9-.3-.16-.56-1.08-.85-1.28-1.21-.85-3.53-.27-4.71-.35a9.37,9.37,0,0,1-1.68-.09c-2-.62-4.07-2.68-6.1-2.76-1,0-3.28,1.4-4,2.47a9.67,9.67,0,0,0-1.57,5.07,4.61,4.61,0,0,0,1.27,2.75,3.13,3.13,0,0,0,2.8,0c.38-.32.16-1.71.47-2.1s1.58-1.16,1.95-.81c1.13,1.05,1.4,4,.72,5.27s-3.77,2.8-5.34,2.07c-.58-.27-.1-2.44-.59-3s-2-.87-2.46-.42.42,2.7-.06,3.38-2.64.51-3.36,1.08a4.93,4.93,0,0,0-1.5,2.34c-.06.59,1.23,1.59.92,2.1-.45.72-2.69-.62-3.24,0-.74.87-.21,3.7.62,4.41a3.68,3.68,0,0,0,3.31,0c.48-.37.19-2,.67-2.32.64-.47,2.33.38,3.08.2.58-.15,1.46-1.38,2.05-1.27.78.14,1.92,1.72,2.07,2.54.11.61-1.27,1.9-.81,2.32s2.41-.57,2.68-1.26c.35-.88-1.62-2.72-1.29-3.6a1.44,1.44,0,0,1,1.21-.62c1.13.27,1.83,3.49,3,3.81.82.23,2.23-1.43,3-1.23a5.82,5.82,0,0,1,2.83,3,3.7,3.7,0,0,1-.52,2.72c-1.64,1.45-4.68,1.79-6.91,1.65a8.59,8.59,0,0,1-4-1.7c-.54-.52-.66-2.39-1.26-2.74-1.58-.92-4.1-.77-5.83-.2a17.72,17.72,0,0,0-8.53,6.77c-.62,1,0,3.78-.62,4.81-.19.32-1.07.5-1.24.83a6.65,6.65,0,0,0,.17,4.59,10.81,10.81,0,0,0,5.19,4.26c2.15.73,5.1-.45,7.37.06a5.44,5.44,0,0,1,2.66,1.7c.52.91-.28,3.31.21,4.23.41.75,2.61.73,2.92,1.47,1.12,2.66-1.55,6.24-1.14,9.09.14,1,1.62,2.45,1.76,3.35.26,1.69-.67,4,0,5.49.43,1,3,1.39,3.91.89a14,14,0,0,0,5.25-5.71c.88-1.89.13-4.82,1.08-6.46.77-1.33,3.24-2,4.07-3.3,1.21-2,.27-5.62,1.42-7.68.9-1.61,3.51-2.55,4.37-4.24.34-.67.17-2.68-.31-3.07-1.19-1-4-.29-5.12-1.36-.5-.47.23-2.56-.08-3.33s-1.82-1.55-2.07-2.28-.4-2.77.21-3.34a1.76,1.76,0,0,1,1.47,0,8.58,8.58,0,0,1,3.57,4.76c.19.62-.66,2.14-.31,2.69a2.53,2.53,0,0,0,1.86.6c2.1-.33,5.71-1.9,6.05-3.54.42-2-5.05-4.3-4.47-6.54.19-.71,3-.69,3.78-.16.57.36.52,2,.93,2.44a14.54,14.54,0,0,0,4.44,3c.74.38,2.72.49,3.13,1.17.54.88-1,3.23-.73,4.16a11.39,11.39,0,0,0,1.92,3.35,47.71,47.71,0,0,0,.69-8.08A47.11,47.11,0,0,0,279.87,321.3Z" style="fill:#fff"></path><path d="M224.92,388.1c-1.76-1.68-3.81-4.33-4-6.44-.22-2.45,4.55-3.56,4.8-6.29.1-1-2.28-3.57-2.09-4.6s2.84-2.09,2.73-3.2c-.24-2.28-2.67-4.86-4.57-6.08-1-.67-4,.16-4.88-.7-.43-.41.26-1.75-.18-2.13s-2.26.24-2.95,0-1.65-2-2.42-2.3c-2.6-.86-6.39,1.28-8.94.26,0,.33,0,.66,0,1v.23a2.51,2.51,0,0,1,1.07,1,2.55,2.55,0,0,1-.56,2.13.69.69,0,0,1-.38.11c.1,1.35.25,2.68.46,4,1.3.83,3,1.38,3.87,2.51.52.7-.59,2.29,0,3,1.18,1.33,3.83,1.45,5.12,2.62,3,2.76,3.55,8.33,7,11.47.59.55,2,1.08,2.61,1.65.82.81,1.16,2.3,2.05,3.07,1.52,1.31,4.09,3.49,5.5,3.37.26,0-.71-2.2-1.53-3.06C227,389,225.56,388.7,224.92,388.1Z" style="fill:#fff"></path><path d="M204.17,349.08a1.74,1.74,0,0,0,1.25-.05c.6-.47.07-2,.57-2.54,2.1-2.26,6.35-2.1,8.33-4.54.55-.69-.29-2.46.45-3,2.36-1.63,6.12,1.78,8.18.29,1.22-.88,2.31-3.93,1.74-5.31-.1-.26-1.42.36-1.69.17-.54-.39.36-2.78-.13-2.95-1.41-.47-3.76.77-5.24,1.58-.41.22-1.12,1.12-1.52,1.25-.84.27-2.49-.31-2.05-.92,1-1.34,3.54-1.7,4.94-2.78,1.24-1,3.42-2.94,3.39-4,0-1.39-5.93.17-7.41.92-.86.44-2.75,2.24-3.64,2.68a47,47,0,0,0-7.92,17.89C203.63,348.34,203.8,348.93,204.17,349.08Z" style="fill:#fff"></path><path d="M229.54,308.71a288.36,288.36,0,0,1,14.68-50.06.66.66,0,0,0-1.15-.62c-7.88,11.3-20.09,30.51-28.82,52.11a5,5,0,0,0,4.09,6.84h0A10.19,10.19,0,0,0,229.54,308.71Z" style="fill:#fff;opacity:0.2"></path></g><g id="freepik--character-2--inject-48"><polygon points="341.53 192.09 341.12 241.72 413.62 241.72 415.26 191.07 341.53 192.09" style="fill:#0CF681"></polygon><g style="opacity:0.8"><path d="M360.44,211.44a5.61,5.61,0,0,1-1.79-.77l.9-2a6.1,6.1,0,0,0,1.5.69,5.87,5.87,0,0,0,1.68.26c1,0,1.57-.26,1.57-.79a.65.65,0,0,0-.45-.61,8.92,8.92,0,0,0-1.44-.42,14.71,14.71,0,0,1-1.82-.5,3.16,3.16,0,0,1-1.25-.86,2.34,2.34,0,0,1-.52-1.6,2.76,2.76,0,0,1,.48-1.59,3.19,3.19,0,0,1,1.44-1.12,5.85,5.85,0,0,1,2.35-.42,7.84,7.84,0,0,1,1.87.22,5.82,5.82,0,0,1,1.63.62l-.84,2a5.59,5.59,0,0,0-2.68-.75,2.14,2.14,0,0,0-1.18.25.7.7,0,0,0-.37.62.61.61,0,0,0,.44.58,8,8,0,0,0,1.42.4,13.78,13.78,0,0,1,1.82.5,3.26,3.26,0,0,1,1.26.86,2.3,2.3,0,0,1,.53,1.59,2.66,2.66,0,0,1-.49,1.57,3.26,3.26,0,0,1-1.44,1.12,5.9,5.9,0,0,1-2.34.42A9.13,9.13,0,0,1,360.44,211.44Z" style="fill:#fff"></path><path d="M374.7,209.66h-4.08l-.76,1.88h-2.78l4.26-9.64H374l4.27,9.64h-2.84Zm-.8-2-1.24-3.08-1.24,3.08Z" style="fill:#fff"></path><path d="M388.31,201.9l-4.13,9.64h-2.69l-4.12-9.64h2.95l2.62,6.28,2.67-6.28Z" style="fill:#fff"></path><path d="M396.62,209.43v2.11h-7.74V201.9h7.56V204h-4.86v1.63h4.28v2h-4.28v1.76Z" style="fill:#fff"></path><path d="M366.7,221.49l-3.13,9.64h-2.92l-1.85-5.87-1.93,5.87H354l-3.12-9.64h2.81l1.94,6.16,2-6.16h2.51l1.94,6.21,2-6.21Z" style="fill:#fff"></path><path d="M373.8,229.26h-4.07l-.76,1.87h-2.78l4.25-9.64h2.69l4.27,9.64h-2.84Zm-.79-2-1.24-3.09-1.24,3.09Z" style="fill:#fff"></path><path d="M379.74,223.65h-3v-2.16h8.64v2.16h-2.95v7.48h-2.73Z" style="fill:#fff"></path><path d="M394.18,229v2.11h-7.74v-9.64H394v2.11h-4.86v1.62h4.28v2h-4.28V229Z" style="fill:#fff"></path><path d="M399.91,228.57h-1.49v2.56h-2.73v-9.64h4.41a5.47,5.47,0,0,1,2.27.43,3.33,3.33,0,0,1,1.49,1.24,3.65,3.65,0,0,1,0,3.72,3.34,3.34,0,0,1-1.4,1.22l2.08,3h-2.92ZM401.2,224a1.84,1.84,0,0,0-1.26-.37h-1.52v2.82h1.52a1.89,1.89,0,0,0,1.26-.36,1.48,1.48,0,0,0,0-2.09Z" style="fill:#fff"></path></g><g style="opacity:0.9"><path d="M352.75,208.39a3.34,3.34,0,1,1-6.68,0c0-1.84,3.34-8.61,3.34-8.61S352.75,206.55,352.75,208.39Z" style="fill:#fff"></path><path d="M409.33,208.39a3.34,3.34,0,1,1-6.67,0c0-1.84,3.33-8.61,3.33-8.61S409.33,206.55,409.33,208.39Z" style="fill:#fff"></path></g><path d="M349.54,245.17c-.22,0-2-6.14-2-6.14l4.61,2.1.93,3S352.39,245.69,349.54,245.17Z" style="fill:#dd8c6a"></path><path d="M347.56,239l1-2.12a1.36,1.36,0,0,1,2.11-.47l1.57,1.31a1.36,1.36,0,0,1,.45,1.35l-.48,2S348.8,241.37,347.56,239Z" style="fill:#dd8c6a"></path><path d="M349.53,264.39c-.49-.67-1-1.37-1.42-2.08a8.87,8.87,0,0,1-.85-1.54,9.79,9.79,0,0,1-.52-1.67,16.8,16.8,0,0,1-.05-5.66,31.77,31.77,0,0,1,2.44-9.05,1.83,1.83,0,0,1,2.4-.93c.73.32,1.56.54,1.46,1.34v.1a63.1,63.1,0,0,0-.63,8.9,13,13,0,0,0,.54,3.71,3.06,3.06,0,0,0,.26.55.91.91,0,0,0,.11.16l.25.31c.44.58.89,1.15,1.37,1.71,1.89,2.27,4,4.48,6.13,6.63s4.36,4.33,6.55,6.37l0,.06a3.63,3.63,0,0,1,.24,5.14c-1.36,1.49-4.71,3.52-6.19,2.16C361.63,280.6,351.46,267,349.53,264.39Z" style="fill:#0CF681"></path><path d="M361.63,280.6l-4.5-6h0c3.32,2.48,5.84-1.39,5.84-1.39l1.89.69.79,3.16-.22,3.2C364,281,362.51,281.41,361.63,280.6Z" style="opacity:0.1"></path><path d="M360.23,411.67c-.64,0-1.2-.08-1.37-.37a.45.45,0,0,1,.06-.49.63.63,0,0,1,.4-.26c.83-.22,2.39.73,2.48.77a.13.13,0,0,1-.07.21A8.46,8.46,0,0,1,360.23,411.67Zm-.65-.93h-.22a.35.35,0,0,0-.24.16c-.1.14-.08.2,0,.25.18.31,1.4.31,2.31.19a4.73,4.73,0,0,0-1.82-.61Z" style="fill:#0CF681"></path><path d="M361.7,411.52h0c-.56-.26-1.58-1.28-1.42-1.84,0-.13.14-.29.46-.32a.75.75,0,0,1,.62.19,2.73,2.73,0,0,1,.52,1.86.12.12,0,0,1-.06.1A.11.11,0,0,1,361.7,411.52Zm-.94-1.93h-.06c-.21,0-.23.11-.24.13-.09.33.58,1.15,1.14,1.51a2.42,2.42,0,0,0-.46-1.49.55.55,0,0,0-.39-.16Z" style="fill:#0CF681"></path><polygon points="367.89 400.27 363.08 400.27 362.2 411.41 367 411.41 367.89 400.27" style="fill:#dd8c6a"></polygon><path d="M361.09,411.23c-3.5,2-4.51,2.09-8.38,2.91-.84.18-.54,2.18,1.43,2.18,3.27,0,3.62-.15,6.41-.15,2.38,0,5.1.11,7,.14l.17,0a.81.81,0,0,0,.62-.84l-.42-4.27a.37.37,0,0,0-.37-.33h-5.26A2.53,2.53,0,0,0,361.09,411.23Z" style="fill:#263238"></path><polygon points="367.89 400.28 367.43 406.02 362.62 406.02 363.08 400.28 367.89 400.28" style="opacity:0.2;isolation:isolate"></polygon><path d="M379.25,307.9s-.92,16.71-2.57,33c-1.51,15-7.85,64-7.85,64h-8.15s-.12-50,.09-65.2c.2-14.64,1.57-31.8,1.57-31.8Z" style="fill:#263238"></path><path d="M370.39,402l-.64,3h-9.91s-.08-3.38,0-3.38Z" style="fill:#0CF681"></path><path d="M377.42,317.85l1.59,2.8c-.63,4.88-1.48,11.91-2.33,20.29-.24,2.42-.61,5.73-1.06,9.57-2.29-8-1.17-32.66-1.17-32.66Z" style="opacity:0.5"></path><path d="M387.74,307.92c2.07,4.86,3.63,9.65,8.71,31,5,20.94,16.95,63.74,16.95,63.74l-8.48,1.86s-19.07-49.81-23.66-64.82c-4.21-13.72-11.63-31.84-11.63-31.84Z" style="fill:#263238"></path><path d="M413.49,410a2,2,0,0,1,.35-1.42.42.42,0,0,1,.5,0,.58.58,0,0,1,.27.36c.22.8-.72,2.49-.77,2.57a.11.11,0,0,1-.11.06.12.12,0,0,1-.09-.09A9.17,9.17,0,0,1,413.49,410Zm.93-.77a.81.81,0,0,0,0-.22.27.27,0,0,0-.16-.22c-.14-.08-.21-.06-.25,0-.31.22-.31,1.43-.17,2.33a5.26,5.26,0,0,0,.58-1.89Z" style="fill:#0CF681"></path><path d="M413.63,411.45v-.05c.26-.58,1.29-1.73,1.83-1.65.13,0,.29.11.32.42a.83.83,0,0,1-.19.64,3.09,3.09,0,0,1-1.84.76.13.13,0,0,1-.11-.05A.09.09,0,0,1,413.63,411.45Zm1.93-1.19v-.07c0-.2-.1-.22-.13-.22-.33-.05-1.14.74-1.49,1.33a2.71,2.71,0,0,0,1.48-.64.71.71,0,0,0,.16-.4Z" style="fill:#0CF681"></path><polygon points="411.54 402.25 406.85 402.6 409.01 411.81 413.71 411.48 411.54 402.25" style="fill:#dd8c6a"></polygon><polygon points="411.48 401.99 412.43 406.04 407.74 406.38 406.78 402.31 411.48 401.99" style="opacity:0.2;isolation:isolate"></polygon><path d="M414.84,410.86c1.26,1.5,1.93,2.27,5.61,3.42.81.26.08,2.2-1.88,2-3.26-.29-1.46-.28-4.23-.52-2.37-.22-5.11-.34-7-.48a.63.63,0,0,1-.19,0,.7.7,0,0,1-.45-.88l1.32-4.18a.41.41,0,0,1,.44-.29l5.23.46A1.66,1.66,0,0,1,414.84,410.86Z" style="fill:#263238"></path><path d="M414.42,401.13l.65,3-10.81,1.09s-1.29-3-1.25-3Z" style="fill:#0CF681"></path><path d="M365.41,271.9a138.45,138.45,0,0,1,14.37-.33c1.25.08,2.5.21,3.75.37,2.61.33,6,2.77,5.56,5.36a101.56,101.56,0,0,0,.19,33.35L362,310.41c-2.69-21.15-1.6-27.94-.57-33.12C362,274.51,362.62,272.37,365.41,271.9Z" style="fill:#0CF681"></path><path d="M380.51,271.4c-1.61-1.42-2.53-8-2.53-8l-5.77,2.83s-.1,3.95-1.21,5c-.44.42.07.29-.55.39l1.87,4,3.29-.13,5.51-3.91C380.51,271.4,381,271.88,380.51,271.4Z" style="fill:#dd8c6a"></path><path d="M371.49,268.12c3.63-1,6.1-3.3,6.49-5,0-.51,0-.84,0-.84l-6.37,2.5A21.31,21.31,0,0,1,371.49,268.12Z" style="opacity:0.1"></path><polygon points="370.43 270.8 373.43 275.56 369.83 278.38 368.55 271.49 370.43 270.8" style="fill:#0CF681"></polygon><polygon points="370.43 270.8 373.43 275.56 369.83 278.38 368.55 271.49 370.43 270.8" style="fill:#fff;opacity:0.5"></polygon><polygon points="380.83 270.61 372.74 275.43 376.23 278.9 382.46 271.72 380.83 270.61" style="fill:#0CF681"></polygon><polygon points="380.83 270.61 372.74 275.43 376.23 278.9 382.46 271.72 380.83 270.61" style="fill:#fff;opacity:0.5"></polygon><path d="M370.6,250.28s-5,.63-1,5.08l3.29-4.63Z" style="fill:#263238"></path><path d="M384.22,254.33a1.1,1.1,0,0,0,0-.26,0,0,0,0,1,0,0A.12.12,0,0,0,384.22,254.33Z" style="fill:#0CF681"></path><path d="M381,257.21c-1.15,4.45-1.55,6.35-4.27,8.22-4.1,2.81-9.31.42-9.52-4.28-.17-4.24,1.74-10.83,6.5-11.74a6.28,6.28,0,0,1,7.29,7.8Z" style="fill:#dd8c6a"></path><path d="M370.23,261.45a6.12,6.12,0,0,0,2.95,0s-.07,1.92-2.48,1.56l-.45-.09A2.77,2.77,0,0,0,370.23,261.45Z" style="fill:#263238"></path><path d="M370.62,261.52V262a4.1,4.1,0,0,0,2.41,0,1.79,1.79,0,0,0,.14-.56A5.54,5.54,0,0,1,370.62,261.52Z" style="fill:#fff"></path><path d="M372.77,262.41a4,4,0,0,0-.62,0c-.82,0-1.49.27-1.58.58l.13,0A2.1,2.1,0,0,0,372.77,262.41Z" style="fill:#c13b37"></path><path d="M373.63,257c-.08.36-.33.62-.56.58s-.38-.38-.31-.75.32-.63.56-.58S373.68,256.64,373.63,257Z" style="fill:#263238"></path><path d="M369.49,256.19c-.08.37-.33.63-.57.58s-.37-.38-.31-.75.33-.62.57-.57S369.55,255.83,369.49,256.19Z" style="fill:#263238"></path><path d="M370.64,257.1a10.16,10.16,0,0,1-1.77,2.09,1.66,1.66,0,0,0,1.26.5Z" style="fill:#c13b37"></path><path d="M375.46,256.48a.23.23,0,0,1-.21-.16,2.58,2.58,0,0,0-1.51-1.42.22.22,0,0,1-.14-.28.23.23,0,0,1,.27-.14h0c.52-.19,1.2.49,1.8,1.72a.21.21,0,0,1-.16.26h-.06Z" style="fill:#263238"></path><path d="M368.61,254a.22.22,0,0,1-.19-.12.24.24,0,0,1,.09-.3,2.18,2.18,0,0,1,2-.08.21.21,0,0,1,.09.28v0a.22.22,0,0,1-.29.09h0a1.78,1.78,0,0,0-1.59.09A.28.28,0,0,1,368.61,254Z" style="fill:#263238"></path><path d="M368,248.48a2.46,2.46,0,0,0,2.65,3c2.17-.27,6.25.52,8.09,3,0,0-.47.7.51,1.25,0,0-2.22,2.73-.87,5.16s3.42-.41,4-1.28a10.19,10.19,0,0,0,1.78-5.3.12.12,0,0,1-.12-.08,1.69,1.69,0,0,0,1-1.43,2.18,2.18,0,0,0-.28-1.11c-.08-.14-.31,0-.23.11a2.15,2.15,0,0,1,.26.8,1.38,1.38,0,0,1-.65,1.27,3.48,3.48,0,0,0-1.48-2.44c-2.8-2-8.41-3-10.45-5.35C372.26,246.1,368.56,247.39,368,248.48Z" style="fill:#263238"></path><path d="M381.59,260.91a3.29,3.29,0,0,1-2,1.52c-1.12.28-1.66-.73-1.33-1.78s1.26-2.23,2.38-2.06a1.48,1.48,0,0,1,1.2,1.72A1.45,1.45,0,0,1,381.59,260.91Z" style="fill:#dd8c6a"></path><path d="M389.09,277.3c-.38,2.3-.65,4.58-.84,6.83h0c-3.49,2.22-6.8-7-6.8-7l4-3.86,1.29-.1C388.21,274.23,389.36,275.73,389.09,277.3Z" style="opacity:0.1"></path><path d="M400.48,245.17c.21,0,2-6.14,2-6.14l-4.62,2.1-.93,3S397.63,245.69,400.48,245.17Z" style="fill:#dd8c6a"></path><path d="M402.46,239l-1-2.12a1.35,1.35,0,0,0-2.1-.47l-1.57,1.31a1.34,1.34,0,0,0-.45,1.35l.47,2S401.21,241.37,402.46,239Z" style="fill:#dd8c6a"></path><path d="M400.49,264.39c.49-.67.95-1.37,1.42-2.08a8.82,8.82,0,0,0,.84-1.54,9.82,9.82,0,0,0,.53-1.67,17.07,17.07,0,0,0,.05-5.66,31.46,31.46,0,0,0-2.45-9.05,1.81,1.81,0,0,0-2.39-.93c-.74.32-1.56.54-1.46,1.34v.1a63.1,63.1,0,0,1,.63,8.9,13,13,0,0,1-.54,3.71,3.94,3.94,0,0,1-.26.55.61.61,0,0,1-.12.16l-.24.31c-.44.58-.89,1.15-1.37,1.71-1.89,2.27-4,4.48-6.14,6.63s-4.36,4.33-6.55,6.37l0,.06a3.64,3.64,0,0,0-.23,5.14c1.35,1.49,4.7,3.52,6.19,2.16C388.39,280.6,398.56,267,400.49,264.39Z" style="fill:#0CF681"></path></g><g id="freepik--character-1--inject-48"><path d="M99.4,259a5.29,5.29,0,0,1-.51,3.23,10.66,10.66,0,0,0-.92,5.11c0,1.87.15,0-1,3.31S92.92,286,97.79,285s14.44.82,17.7,1.58,7.63-8.31,4.46-15.7c-1.71-4-3.1-6.21-2-7.59s3.34-6.26-.63-7.26-2.07-2.92-6.79-3C106.4,253.05,98.93,255.21,99.4,259Z" style="fill:#2e353a"></path><path d="M129.22,253.41l-.66-4.93s2.41-3.86,3.2-3.41,3.53,2.29,3.53,2.29a23.31,23.31,0,0,0-.9,4.09c0,1-1.33,3.28-1.33,3.28Z" style="fill:#b55b52"></path><path d="M119,278.32l8.17-6.76,2-18.15,3.84,1.32s.53,16-1.65,20.63c-.49,1-12.08,9.29-12.08,9.29Z" style="fill:#b55b52"></path><path d="M114.5,279.46c1-1.19,8.58-6.79,10.45-7.06l2.75,6.37s-8.94,8.82-12.15,8.66c-2-.1-2.6-2-2.55-3.54A7.71,7.71,0,0,1,114.5,279.46Z" style="fill:#0CF681"></path><path d="M123.1,282.93c-2.64.31-4.86-3-4.86-3l-1.15,0-1.88,2.56s-.69,4.45-.6,4.71a2.5,2.5,0,0,0,.94.24C117.21,287.52,120.4,285.19,123.1,282.93Z" style="opacity:0.1"></path><path d="M132.61,231.77l-11.17,2.12-.26-.4a.44.44,0,0,0-.73.48l11.73,18a.43.43,0,0,0,.73-.47l-6.76-10.37Z" style="fill:#0CF681"></path><path d="M127.69,236.11a1.31,1.31,0,1,1-2.2,1.44,14.45,14.45,0,0,1-.67-3.42A14.2,14.2,0,0,1,127.69,236.11Z" style="fill:#fff;opacity:0.9"></path><path d="M99.11,314.89S94.56,327.38,97,335s5.13,25.83,4.86,29.37-11.11,17.4-18.17,31.46l6.14,1.81s16-16.52,21.14-23.13c5.9-7.58,6.51-25.87,3.7-36.55,0,0,8.72,21.64,9.2,24.42s-3.55,21.14-5,33.64l8.08,1.82s6.81-23.51,8.61-29.31-.7-20.41-2.76-26.28c-4.63-13.25-11.78-28.85-11.78-28.85Z" style="fill:#263238"></path><polygon points="88.32 398.64 85.19 403.4 81 402.87 83.9 397.21 88.32 398.64" style="fill:#b55b52"></polygon><polygon points="124.83 398.66 123.86 404.54 119.78 404.32 120.22 398.2 124.83 398.66" style="fill:#b55b52"></polygon><path d="M78.43,404.28a.9.9,0,0,1,.11-1.21c.61-.49,3.21-2.1,3.21-2.1l4.19,1.89s-1,4.46,1,7.87c.78,1.32,1.23,2.3.66,2.77s-2,0-2,0Z" style="fill:#263238"></path><path d="M116.58,405.17a.89.89,0,0,1,.11-1.21c.61-.49,3.21-2.11,3.21-2.11l4.19,1.9s-1,4.45,1,7.87c.78,1.32,1.23,2.3.66,2.76s-2,0-2,0Z" style="fill:#263238"></path><polygon points="92.18 397.07 82.62 394.57 81.28 397.56 90.03 400.13 92.18 397.07" style="fill:#0CF681"></polygon><path d="M128.24,397.11c-.16-.11-10.16-1.44-10.16-1.44l0,3.13,9.21,1.5Z" style="fill:#0CF681"></path><path d="M96.64,279.14l-8.53-8.49,5.45-17.74-4.06-.08s-7.12,14.87-6.66,19.94c.1,1.14,9.1,12.22,9.1,12.22Z" style="fill:#b55b52"></path><path d="M99.28,282c-.27-2.46-8.09-9-8.09-9L86,278.36s5.86,9.12,9,8.43S99.58,285.11,99.28,282Z" style="fill:#0CF681"></path><path d="M120.23,284.55c-.09,5,.08,14,1.25,29.37L98,316.38c-.6-9.61.55-20-7.83-34.6a69.11,69.11,0,0,1,9.82-2.35,73.41,73.41,0,0,1,10.66-1.12c1.22,0,2.5,0,3.71.05A6.07,6.07,0,0,1,120.23,284.55Z" style="fill:#0CF681"></path><path d="M93.56,252.91l2.32-4.4s-.93-4.45-1.84-4.3-4.1.94-4.1.94a22.76,22.76,0,0,1-.56,4.14c-.37,1,.12,3.54.12,3.54Z" style="fill:#b55b52"></path><path d="M117.63,344.26C116,337.21,119,329.35,119,329.35l-4.29,8.59s1.34,2.84,2.93,6.32Z" style="opacity:0.4"></path><path d="M104.76,269.49c.32,2.91.51,7.72-1.66,9.45A24.54,24.54,0,0,0,110,284.4a5.18,5.18,0,0,0,1.91-6.09c-2.13-.75-2.85-1.51-2.14-3.69Z" style="fill:#b55b52"></path><path d="M109.79,274.62,107,271.78h0l-.18-.17a5.1,5.1,0,0,0-.38,1.76c0,.94,1.76,2.2,3.11,2.91A3.8,3.8,0,0,1,109.79,274.62Z" style="opacity:0.1"></path><path d="M102.2,265c1.22,4.65,1.63,6.65,4.48,8.59,4.29,2.93,9.74.43,9.94-4.49.18-4.43-1.84-11.28-6.81-12.25A6.55,6.55,0,0,0,102.1,262,6.65,6.65,0,0,0,102.2,265Z" style="fill:#b55b52"></path><path d="M101.82,268.9a3.53,3.53,0,0,0,2.07,1.72c1.18.35,1.79-.7,1.48-1.82s-1.22-2.42-2.41-2.28a1.58,1.58,0,0,0-1.34,1.8A1.74,1.74,0,0,0,101.82,268.9Z" style="fill:#ebb376"></path><path d="M104.39,255.63c-.83,1.43,1.25,4.07,5.61,3.82,3.28-.19,7.4,3.33,7.07-.48C116.79,255.5,108.53,253.84,104.39,255.63Z" style="fill:#2e353a"></path><path d="M106.78,256.67c2.27,1.75.76,4.92-.33,6.35s-2.79,2.77-1.48,4.88,2.2,7.94-2,6.92-4-8-2.76-11.18S104.07,254.61,106.78,256.67Z" style="fill:#2e353a"></path><path d="M113.21,269.6c.07.38.33.65.58.6s.39-.4.32-.78-.34-.65-.59-.61S113.13,269.22,113.21,269.6Z" style="fill:#2e353a"></path><path d="M107.47,263.32l-.09,0a.19.19,0,0,1-.07-.26h0a2.25,2.25,0,0,1,1.73-1.12.19.19,0,0,1,.19.19.18.18,0,0,1-.18.19,1.87,1.87,0,0,0-1.41.94A.22.22,0,0,1,107.47,263.32Z" style="fill:#2e353a"></path><path d="M115.61,261.78l-.1,0a1.82,1.82,0,0,0-1.68-.11.19.19,0,0,1-.26-.08h0a.19.19,0,0,1,.08-.26,2.25,2.25,0,0,1,2,.11.2.2,0,0,1,.09.26.18.18,0,0,1-.18.1Z" style="fill:#2e353a"></path><path d="M110.08,264.8c.07.39.33.65.59.61s.39-.4.31-.79-.34-.65-.59-.6S110,264.42,110.08,264.8Z" style="fill:#2e353a"></path><path d="M114.41,264c.07.38.34.65.58.61s.4-.4.32-.79-.34-.65-.59-.6S114.33,263.57,114.41,264Z" style="fill:#2e353a"></path><path d="M114.62,263.21l.87-.44S115.15,263.58,114.62,263.21Z" style="fill:#2e353a"></path><path d="M110.29,264.06l.86-.44S110.82,264.43,110.29,264.06Z" style="fill:#2e353a"></path><path d="M112.92,263.79l.87,3.29a3.63,3.63,0,0,0,1.17-.27.44.44,0,0,0,.21-.59.49.49,0,0,0-.18-.2A7.86,7.86,0,0,1,112.92,263.79Z" style="fill:#892b29"></path><path d="M109.08,241l-7.16-8.83c.08-.14.16-.28.23-.42a.43.43,0,0,0-.76-.42L91.08,250.21a.44.44,0,0,0,.77.42q3-5.43,5.93-10.86Z" style="fill:#0CF681"></path><path d="M102.93,238.75a1.32,1.32,0,1,1-2.31-1.27,14.86,14.86,0,0,1,2.7-2.2A14.45,14.45,0,0,1,102.93,238.75Z" style="fill:#fff;opacity:0.9"></path><polygon points="130.46 246.41 129.44 248.56 130.88 251.63 132.99 252.57 133.82 249.88 132.99 246.41 130.46 246.41" style="fill:#b55b52"></polygon><polygon points="93.53 244.64 94.32 244.97 94.84 246.92 92.27 252.01 89.73 250.47 91.67 245.76 93.53 244.64" style="fill:#b55b52"></polygon></g></svg>